<svg xmlns="http://www.w3.org/2000/svg" width="1050" height="1050" viewBox="0 0 1050 1050"><g id="01-dome"><path fill="#2786f0" fill-rule="evenodd" d="M546.4 831.9c-18.1.3-47.7.2-63.6-.5a496 496 0 0 1-58.8-7.6q-15.1-3-29-7.2c-9-2.8-18.9-6.4-26-9.5a69 69 0 0 1-24.8-16.4 42 42 0 0 1-6.7-9c-2.1-4-2.8-6.3-5.1-13.7-9-28.7-36.1-142.6-54.2-214-9-5.7-19.1-10.8-27.2-17a144 144 0 0 1-19.4-19c-3-3.5-4.5-6-6.3-9.3-1.8-3.2-3.2-6-4.5-10-1.8-5.9-3.6-15.4-4.1-22.1-.5-5.7 0-10.2.4-15.6.5-6 1.6-13.2 2.7-18.8 1-4.6 1.9-8.2 3.3-12.5a184 184 0 0 1 13.5-30.3c2.5-4.5 4.3-7.9 8-12.7 5.6-7.3 16-17.4 24-26.2.3-9-.3-19.5 1-27.4 1-6 3-12.2 4.7-15.8 1-2 2-3 3-4.5 1-.6 1.7-1.2 3.1-1.8 2.7-1 7.7-2.2 12.6-3 6.8-1.1 16.4-1.3 24.7-2 4.2-5 8.3-10.5 12.6-14.9 3.8-4 7-6.9 11.5-10.4 5.6-4.5 13.4-9.7 20.2-13.8 6.5-4 13.1-7.3 19.7-10.9 1.5-4.8 2.8-10.4 4.5-14.4a41 41 0 0 1 10.5-15 35 35 0 0 1 16.4-7.5 42 42 0 0 1 21.8 3.1c3.5 1.5 6.6 3.8 9.8 5.6 7-2.1 15.3-5.2 21.3-6.3 4.3-.8 7.3-1 11.3-.8a65 65 0 0 1 14.5 3c6.7 2.2 14 7.6 22.3 9.2 10 2 26 .6 33.8 0 4.1-.4 5.8-.5 9.5-1.7 5.6-1.7 13.5-7.8 20-9.5a51 51 0 0 1 16.9-1.3 59 59 0 0 1 16.3 3.6c12.2 3.8 36.9 17.7 49.5 20.3 7.4 1.6 12.1.4 18.2.6 4.4 5 7.8 10.5 13.2 15.3 6.4 5.7 16.2 10.2 23.4 15.8a188 188 0 0 1 19 16.7c3.5 3.7 5 5.8 8.4 10.4 6 8 17 26 23.6 34.2 4.1 5 7.2 7.7 10.8 11.5 8 2 18.5 3.5 23.7 5.7 2.9 1.2 4.2 2.2 6.2 3.8a37 37 0 0 1 10.7 14.7q1.5 4.3 1.9 9 .5 5.5 0 11.6c-.5 4.2-1.8 8.7-2.6 13 3.3 8.7 7.4 17.7 9.9 26.1a144 144 0 0 1 5.7 43.2 68 68 0 0 1-11 37 85 85 0 0 1-12 14.7c-4.5 4.4-9.2 8-14.8 12-7 4.9-16.2 9.8-24.2 14.6-16.5 64.7-42.6 163.4-49.5 193.9-2.2 9.4-2 12.8-3.7 18.5q-2 7.5-5.2 13.7a54 54 0 0 1-15.8 18.5c-4.2 3-9.3 5.2-14.7 7.7q-9.5 4.2-20.7 8a247 247 0 0 1-26.8 7.5 534 534 0 0 1-52.1 8.3c-13 1.3-21.8 1.3-35.3 1.6"/></g><g id="02-dome-shade"><g fill="none" stroke="#156acb" stroke-linecap="round" stroke-linejoin="round"><path stroke-width="2.4" d="m354.3 272.5-29.7 26.3"/><path stroke-width="1.2" d="M322.3 301.9s-20.8 31.3-28.6 40.2c-4.4 5-7.1 7-11.5 10.7a404 404 0 0 1-17.8 13.4"/><path stroke-width="2.4" d="M559.7 233.4s6-5.4 9.5-7.3a47 47 0 0 1 24-5.1c4.3.2 7.5.4 13.3 2a466 466 0 0 1 54.3 22.8 419 419 0 0 1 44.8 24.3c5.8 4 13 10.6 13 10.6"/><path stroke-width="1.2" d="M692.7 331.5s.5-12.4.1-17.4a46 46 0 0 0-6.2-20.7 27 27 0 0 0-6.6-7.5 14 14 0 0 0-6.2-2q-5-.8-12 .4c-7.3 1.2-27.3 7.8-27.3 7.8m-226.4 59.1s12.1 2.1 18.2 3.8c6.2 1.8 13.8 4.2 18.6 6.6 3.5 1.7 5.4 3 8.5 5.5 4.5 3.6 15.4 14.8 15.4 14.8M514.5 235s-11.2-6.1-16-8.2c-4-1.7-7.2-3-10.9-3.8a55 55 0 0 0-11.6-.9c-4.7 0-11 .2-15.3 1.3-3.1.9-6.5 1.8-7.9 3.8-1.2 1.9.3 5.8-.4 7.7a7 7 0 0 1-2.5 3.4c-3.3 2.8-11.2 6.1-18.8 9.6-11.2 5.2-34.6 16.5-42.1 17.7-2.6.3-4.1.3-5.5-.6-1.5-1-3-5-3-5m113.1 16.4q3.7 0 6.5.8c1.6.5 2.9 1 4.2 2.4 2 2 4.4 5.8 5.7 9.8a60 60 0 0 1 1.6 20.3q-.5 3.8-2.3 5.7a7 7 0 0 1-3.9 2.1 33 33 0 0 1-11.3-.8 121 121 0 0 1-18.7-6.3c-4-1.6-7.9-3-10.4-5q-2.9-2-4-4.8c-.5-2 0-4.8 1.2-7.2 1.7-3.3 6-7.3 9.5-9.8q4.9-3.2 10.5-5c3.6-1.1 8.1-2 11.4-2.2M666 393c3.2 0 5 1 7.6 2 3.1 1.5 6.4 3.8 9.8 6 4 2.8 8.8 6.2 12 9.3 2.7 2.6 4.7 4 6.5 7.8 3.4 7.3 7 29.8 6.6 35.8-.1 2-.5 3-1.4 4.1q-1.3 1.8-3.8 3a33 33 0 0 1-8.2 2.7c-2.9.6-5.1.6-8.8.8-6.1.2-17.2.2-24.7-.2-6.4-.4-11.7-.5-17.5-1.8a83 83 0 0 1-18.3-6.2 31 31 0 0 1-12.4-12q-1.3-2.3-1.5-4.5c0-1.5 0-2.5.9-4.5 2-5.3 10.1-20.6 16-26.7a42 42 0 0 1 14-8.8c6.5-3 17.6-6.8 23.2-6.8m-348.4 58s-8-4.2-11.6-6.6a66 66 0 0 1-9.4-7.4 35 35 0 0 1-6.5-7.9c-1.3-2.4-2.4-4.9-2.1-7.4.2-2.8 2.1-6 4.1-8.7a44 44 0 0 1 19-13 129 129 0 0 1 14.8-3.4m176.8 63.5c2-.3 3.3-.1 4.8.3q2.2.5 4.3 2.2c2.4 1.8 5.4 5.5 7.6 8.9 2.5 3.9 5.3 9.6 6.3 13.4q1 3.6.8 6.5 0 2.5-1.3 4.3a14 14 0 0 1-6.5 3.6c-4 1.1-10 1-15.5 1.1-6 0-14.2-.1-19-1q-5-.7-7.8-2.5a8 8 0 0 1-3.2-8.2c.5-3 2.7-8.2 5.2-11.9 2.7-4 6.7-8 10.8-10.8 4-2.7 10-5.3 13.5-5.9"/></g><path fill="#156acb" fill-rule="evenodd" d="M465.8 221.5c-1 0-3-.2-3.4.2v.5l5-1.2a50 50 0 0 1 10.1-.6l5.4.8.2-.4-.2-.2c-.5 0-2 .4-3.6.5-2.7.2-9-.1-11.3 0zm106 1.5-1.4.4q0 .2.3.4c.7.2 4.3-2 6.4-2.5q3-.7 6-1v-.5h-.5zM356 272.6l-.8-1c1.8-1.4 3-2.5 5.3-4 3.7-2.6 12.2-7.6 15.6-9.2q2.4-1.2 3.7-1.3 1 .1 1.8.4l1-3.5.9 1.1c.5 1 1 4 1.5 5l.8.8q1 .3 2.1.4c.8 0 1.3-.2 2.7-.7a669 669 0 0 0 36.5-15.1c7.5-3.5 16.5-8 19.2-9.8.8-.5 1-.8 1.4-1.2q.4-.4.6-1c.3-.9.2-3.6 0-4.7 0-.7-.6-1.3-.4-1.5h.4l2-1.4c1-.5 2.8-1.5 3.2-1.4q.2.1.3.4c-.7.4-1.5 1.3-2 1.3l-.7-.3q-.6 0-1.1.6-.3.5-.4 1.1v1.1c.4 1.3 2.4 4 3.5 6l-1.4 1.4q-1.9 1.4-5.2 3-5.5 3.1-14.5 7.4c-9.2 4.3-27.9 12.2-35.5 15.3-3.6 1.5-5.6 2.4-8 3.1-1.6.6-3 .7-4.4 1.1q-.7-.7-1.2-1.9c-.5-1.2-.5-4.2-1.1-5q-.5-.6-1.2-.7l-.8.7c-.6.3-1.4 0-2.6.4-3.7 1.4-13.9 8.5-20.8 12.7zM546.5 388l-.3-.4c0-1.2-.4-2.1-.2-3.7q.5-4.2 3-11.7c3.3-9.7 13.4-31.7 17-41.2 2-5 3.2-8 4.2-11.5a37 37 0 0 0-2.5-28.7 38 38 0 0 0-5.7-7.8 447 447 0 0 0-25.5-25.6c-7.8-7.4-15.5-13.8-23.2-20.7l1.8-1.1q.7-1 .5-1.7c-.2-.6-1.7-1-2.5-1.2-.6-.1-1.6-.2-1.7 0l.3.6c14.2-.2 35.8.6 42.5-.6 2-.4 2.5-.7 4-1.5 2.3-1.2 5.5-3.7 8.2-5.6l-9 7c.8 1.3 1.8 2.1 2.4 3.7 1 2.3.6 6.3 1.5 9.2 1 3 2 5 4 8.4 3.5 5.8 11.5 17 16 23 3.2 4 6.5 7 8.4 9.7a46 46 0 0 1 7.4 22.8q0 3.6-1.2 7c-.7 2.7-1.5 5-3.3 8.4-3.2 6-11.4 16.9-15.8 24-3.4 5.6-5.4 10.6-8.5 15.2-3 4.2-6 7.6-9.3 11.4-3.7 4-8.1 8-12.1 12.1zm149.7-124.7-7.6-4.3c-4.6-2.4-12.5-6-17.1-8.6-3.3-1.8-7.6-5-8.4-4.9l-.2.2q1.2.5 2.4.5a6 6 0 0 0 2.3-.7l.7-.7c6 3.3 14.1 6.7 18 9.9 2.1 1.9 2.7 4 4.3 5.5 1.6 1.4 3.6 2.2 5.4 3.3zm-370.4 31.8v.1c3.2-3.1 6-6.2 9.5-9.4q6.2-5.2 13-10.5l-1.1 1.3c-1.8 1.7-7.8 5.9-11.4 9q-5 4.5-9.7 9.2zm181 22.1c-2.4-.1-4.5.1-7-.2q-4.3-.7-9.7-2.5a220 220 0 0 1-15.8-5.5q-4.8-2-8.2-3.8-2.4-1.2-3.7-2.5-.9-1-1.2-1.7l-.3-1.4q0-1.4.6-3.4 1.1-2.4 3.5-5c1.8-2.2 4.8-5.3 7-7 1.5-1.1 2.4-1.6 4.4-2.4a105 105 0 0 1 15.4-4.4 17 17 0 0 1 9.5 1q1.2.6 2.5 1.6c1 1 2.4 2.7 3.3 4.1q.9 1.6 1.5 3.4.8 2.3 1.4 5a60 60 0 0 1 1.1 16q-.1 2-.6 3.7-.4 1.4-1 2.6l-2.2 2q-.2 0-.5.4m-1.2-4.2q.7-.7 1.2-1.5.4-1.1.5-3.1c.2-3.2-.5-12.2-1.1-15.6-.3-1.7-.4-2.4-1-3.8-.7-2-2.8-5.7-3.7-6.6l-.9-.3-1.3-.8a18 18 0 0 0-7.1-.5 66 66 0 0 0-10.3 2.4 37 37 0 0 0-8.7 4.6c-1.7 1.4-5 4.4-6.2 6.2q-1 1.6-1.3 3t-.3 2.3l.2.9c1.1.9 1.9 1.8 3.2 2.7a58 58 0 0 0 8 3.9c2.4 1 4.4 1.5 7 2.3 3.3 1.1 7.7 2.9 11.4 3.6 3.2.6 6.3.4 9.4.6q.6 0 1-.3"/><path fill="#156acb" fill-rule="evenodd" d="M546.9 599.4c-19.2.4-46.5.5-69.4-1a793 793 0 0 1-66.8-7.7 775 775 0 0 1-80.5-18.2 527 527 0 0 1-31.7-10.1c-6.6-2.4-11.1-4-17-6.8-7.1-3.5-16.2-8.9-22.4-13a125 125 0 0 1-26.2-22.8 65 65 0 0 1-14-27.8 75 75 0 0 1-2.3-15c-.3-6.5 0-14.4.8-21.4.8-6.7 2.4-13.1 3.6-19.7 0 2.4.5 5.8-.2 7.4-.4.9-1.6 1-2 1.8-.3.6 0 1.6-.2 2.4 4.7 6.1 8.9 12.6 14.1 18.5a162 162 0 0 0 18.3 17.8 160 160 0 0 0 20.6 13.3 297 297 0 0 0 50.6 23 393 393 0 0 0 71 17.6 654 654 0 0 0 72.7 8.1c13.3.6 28.7.8 41.8.4a371 371 0 0 0 65-7.6 399 399 0 0 0 38-9.9c8.5-2.8 17-6 22.4-9 3.3-1.8 5-3 7.6-5.5 4-3.8 8.8-10.7 13.2-16 2.3-.7 4-1.5 6.9-2 4-.8 11.2-.7 15.4-1.4 3-.6 4.8-1 7.4-2a73 73 0 0 0 19-12.6 130 130 0 0 0 22.3-26.8 87 87 0 0 0 6.5-13.4c2-5 3.1-10.8 4.7-16.2-.4-1.3-.3-2.7-1.2-3.9-1-1.6-4.4-3-5.6-4.5-.8-1-1-2-1.5-3l-4-26.2c.7-.5 1-1.2 1.8-1.6 1.6-.7 6.2 0 7.6-1 .7-.4.7-1.2 1.1-2 .2-7.1.9-13.6.7-21.5a315 315 0 0 0-2.8-33c-1-7-2-11.8-4-18.4-2.2-8-10-22.7-9.7-25.7 0-.7.5-.8.8-1.2.4-.2.7-.8 1.2-.8q.5 0 1.3.8c2.5 1.8 9.8 8.1 15.3 14.5 8.5 9.7 21.5 31.3 28.4 40.2 3.6 4.7 5.8 6.9 8.7 10.3-.4.8-.4 1.6-1.1 2.4-1.4 1.5-6.8 2.8-7.7 4.3-.5.8 0 1.6 0 2.3 3 4.9 4.9 8.5 9 14.6 7.4 10.9 22 29.7 33 44.6.7 0 1.3.3 2 0 1.4-.7 3.3-4.4 4.8-5.6.9-.8 1.8-1 2.6-1.5 2.6 6.2 5.5 12 7.7 18.4a154 154 0 0 1 7.8 44.5q.2 9.2-1.2 17.2a68 68 0 0 1-11.1 27.1q-4.2 6.1-9.9 11.7c-4.2 4.2-8.6 8-14.7 12.2-8.8 6-23.7 14.3-33.8 19-7.6 3.5-12.6 5-20.8 7.6a830 830 0 0 1-73.8 19.7 618 618 0 0 1-37.2 6.7c-14.9 2.3-33 4.4-47.7 5.6a484 484 0 0 1-35.2 1.8"/><path fill="#156acb" fill-rule="evenodd" d="M693.8 347a167 167 0 0 1-32.9-3.5 72 72 0 0 1-11.9-4 40 40 0 0 1-15-11.6 202 202 0 0 1-17.5-28.1q-1-2.5-1-3.8.2-1.1.8-2.1.3-.6 1-1a9 9 0 0 1 3.1-.9c2.4-.3 7.7-.2 9.9-.1q1.4-.1 2.4.2 1.5.8 3 2.2c2.5-1.4 5-3 7.6-4a64 64 0 0 1 15.5-4.2c4-.6 10.6-1.7 13.8-1.7q2.5 0 4.2.6 1 .2 2.1 1a27 27 0 0 1 9.6 12.7 55 55 0 0 1 3 29.8l-.8 3.6 1.2.4c.5 0 1.2-.6 1.5-.5l.3.3c1.3 3 3.2 7.2 3.8 9q.5.9.5 1.6v2q-.8 1-1.8 1.6-.9.5-2.4.5m-9.2-10.5q1.4-1.2 2.4-2.6a9 9 0 0 0 1.2-3 77 77 0 0 0 0-19.8q-.2-3.2-1.1-6.3a31 31 0 0 0-9.9-15.4l-2.3-1q-.8-.2-1.7-.2a78 78 0 0 0-8.4 0 159 159 0 0 0-25.7 6.9c-1.7.8-2.4 1.5-3.4 2.3q-1.4 1.2-2.5 2.6v3.6a52 52 0 0 0 13.2 19 85 85 0 0 0 9.5 7.6 47 47 0 0 0 11.5 5c2.6.7 5.8 1.3 8.6 1.6h7.6zm-446.2 60.1v-.2c3.6-5.4 6.5-11 10.9-16.3 4.9-6 15-14.1 17.5-17.4.8-1.1 1-1.6 1.4-2.5q.4-1.1.4-2.2c3.8-2.9 7.8-5.4 11.5-8.5 3.7-3.2 6.7-5.7 10.7-10.3 6.5-7.4 15.2-21.1 22.8-31.6q.1-.4.5-.6c.3-.1.8.3 1.4.2q1-.4 2.4-1.6c1.5-1.2 4-5.7 5.1-5.8.5 0 .8.6 1.2.8q-.3.6-.7.7c-.3 0-.6-.6-1-.6l-1.2.5c-7.3 10.7-16.4 24.6-22 32.2a86 86 0 0 1-7.7 9.8 97 97 0 0 1-10 9c-5 4-11.5 8.4-17.3 12.6q-.6.3-.8.7a2 2 0 0 0-.1 1.3l.4.6q-.1.4-.6.8L251.7 380q-.6.6-.9.7l-.6-.4q-.5 0-1 .4l-.8.7q-1.3 1.4-2.2 3c-.6 1-.3 2.3-.9 3.6-.6 1.6-2 3.4-3 5q-.5.6-.9.8l-.6-.3q-.4-.1-1 .3c-.6.4-1 1.5-1.5 2.3zM347 342.1l-.5-.8q-.2-.5-.1-1.3a56 56 0 0 1 2.6-13.2q.9-2.2 1.9-4 1-2 2.4-3.8a29 29 0 0 1 5.6-5.2 40 40 0 0 1 14.9-6.4 79 79 0 0 1 19.3-1.5q.5.2.8.6l-2.1 2.1-6.8 5q-4.2 2.8-9 5.6a248 248 0 0 0-18 13.3c-3.3 2.7-7.2 6.2-10.7 9.2zm82.9 87.9a63 63 0 0 1-14.4-.5c-5.3-.9-17.8-3.5-23.4-5a47 47 0 0 1-7.4-2.3l-2.3-1.5q-1-1-1.8-2.1c0-1-.3-1.9-.1-2.7q.2-1.4.9-2.7.6-1.9 1.5-3.4c.6-.8 1.7-1.1 2-1.9.5-.8.1-2.6.4-2.8l.5.3q.7.5 1.3 1.3c.7 1.2 1 5 1.8 5.8q.4.4 1 .4 1.2 1 2.7 1.6 1.4.7 3.8 1.2a84 84 0 0 0 38-.7c2-.6 2.6-1 4.6-2.1a238 238 0 0 0 20.8-14q3.6-3 5.4-5.1 1.2-1.4 1.7-2.7l.5-2.2-.2-1.2q-.6-1.7-2.2-3.5c-.8-1.1-1.6-1.8-2.9-3.2-2.5-2.5-8.1-8.2-11.4-10.9q-3.3-2.5-6-3.9c-1.3-.8-1.9-1.1-3.5-1.8a149 149 0 0 0-15-5.2c-5.7-1.6-15.2-2.8-18.4-4a6 6 0 0 1-2.3-1.5q-.8-.8-1.2-1.8.5-.3 1.3-.4 1.3 0 3.8.6a230 230 0 0 1 34.8 10.2 45 45 0 0 1 10.7 7.2c3.3 3.1 8.4 9.4 12.6 14 .8-.4 1.7-1.2 2.6-1.3q1 .1 2.4.7c1.7.6 4.8 1.7 6.4 2.5q1.5.7 2.3 1.5l1 1.3c-.5 1.5-.6 2.7-1.4 4.3q-2.1 3.5-6.4 7.9a224 224 0 0 1-19.8 18.3 92 92 0 0 1-12.5 8.1 33 33 0 0 1-12.2 3.1m-107.6 26.3q-.9-.1-2-.6c-1-.6-3-2.1-3.2-2.8q-.1-.6.4-1l1.4-.6.9-1q-.4-.6-1-1c-1-.6-3-.6-4.6-1.2q-3-1.2-6.3-3.4a97 97 0 0 1-13.8-11.7 37 37 0 0 1-3.5-4.5q-1.4-2.1-2-4.1-.4-1.5 0-3 .5-2 1.7-4.2 1.4-2.4 3.3-4.6 1.9-2 4.2-4a56 56 0 0 1 11.6-7l4.5-1.5c2.5-.6 7.2-1.5 9.5-1.6 1.4 0 2.5.7 3.3.5q.6-.4 1.1-1l-1.6-3 1-1c1-.7 3-1.7 4.6-2.5l1 .6a14 14 0 0 1 3.3 3.5c.7 1.4.8 2.5 1 4.5a193 193 0 0 1-.6 27.1 57 57 0 0 1-10 25.7c-1 1.3-2 2.6-2.7 2.8h-.9zm-3.2-10.2q.9-.7 1.8-1.9 1.2-1.6 2.2-4 1.5-2.8 2.5-6.3a90 90 0 0 0 4.2-21.7 55 55 0 0 0-.2-7.3q0-.9-.4-1.5-.5-.8-1.3-1.4t-2.2-1c-2.3-.2-8.6 1.8-11.1 2.4-1.3.3-1.8.4-3 .9a71 71 0 0 0-9.3 5 42 42 0 0 0-7 6.5c-1.5 2-2 4.2-3.1 6.3l1.4 4.5c.2.7.3.8.7 1.4a58 58 0 0 0 14.9 14q4.3 2.4 8.9 4.4zm361.3 23a252 252 0 0 1-25.4-.4q-6.5-.4-13.2-1.6a97 97 0 0 1-13.4-3.3 66 66 0 0 1-21.5-12 15 15 0 0 1-3-3.4q-1-1.5-1.3-3.2a8 8 0 0 1 .2-3.5q.6-2 2-3.8 1.6-1.6 3.5-3c1.2-.7 3.2-2 3.7-1.8q.2.1.3.4-.6 1.3-1 2.7c-.4 1.1-.6 2.7-.5 3.9.2 1 .5 2.3 1 2.8s1.4.5 2.1.8q.7-.2 1.1-.6t.6-1.1c.1-.7-.6-1.7-.6-2.7q-.3-1.6.1-3.6.9-3.3 3-7.6c1.7-3.8 4.9-9.4 7-12.9 1.6-2.4 2.6-4.1 4.4-6q3-2.7 6.7-4.8 3.8-2.3 8.1-4a113 113 0 0 1 11.2-4c3.6-1.1 7.7-2.7 10.6-2.7 2 0 3 .6 5 1.4a116 116 0 0 1 22.5 14.8c2.5 2.3 5.3 5 6.7 6.8q1.2 1.7 1.7 3 .6 2.1 1 4.5.5 2.9.6 6.6c.1 3.6-1.3 11.5-.4 12.9q.5.4 1.1.4l1.8-.1 1-.6q.6-1.1 1-2.5 1 2.3 1.6 4.8a62 62 0 0 1 1.4 15l-.5 1.7q-1 1.2-2.6 2.2c-1.8 1-5.1 1.9-7.7 2.5a198 198 0 0 1-20 2m9.4-12c2.4-.2 4-.8 6-1.3.8-1 1.6-1.5 2.3-3 1.3-2.7 3.4-8.2 3.6-13 .2-6-1.7-15.4-4-20.2-1.4-3-3.3-4.5-5.6-6.7-2.8-2.7-6.9-5.6-10.2-8-3-2-6-4.1-8.6-5.3a28 28 0 0 0-7.4-2.1c-.8 0-1.3.2-2.6.5-3.3.8-13 3-18.4 5.5a60 60 0 0 0-12.3 7.6c-1.1 1-1.2 1.4-2.2 2.8a240 240 0 0 0-13 21.5c-.8 1.6-.8 2.4-1.2 3.6q2.4 2.5 5.3 5 3.2 2.7 7 4.8a46 46 0 0 0 12 4.2 557 557 0 0 0 29 3.9l7.8.5c3.7.1 9.1.2 12.5-.2M514.3 499c-5.8.4-19 .3-24.5.1a66 66 0 0 1-10.1-1.1l-2.8-1q-.7-.2-1.3-.6-.7-.6-1.3-1.6-.3-.2-.4-.5c-.3-.7-.2-3 0-4.6q.6-2.8 1.7-5.7 1.3-3 3.3-6a45 45 0 0 1 10.2-10.7 41 41 0 0 1 10.7-5.6c2.1-.6 4.9-.9 7.3-1.4q2 1 3.8 2.3 1.7 1.4 3.3 3.3a68 68 0 0 1 8.4 13 41 41 0 0 1 3.4 10.7c0 1.5-.2 3.3-.4 4.4l-.7 2-1 1q-.6.5-1.9.9-2.6.7-7.7 1m-9-3c2.7-.1 9.1-.2 11.7-.8q1.8-.4 2.9-1t2-1.6q.4-.4.4-1V490q-.1-1.7-.8-4.5a41 41 0 0 0-12-19.3q-1-.9-2-1.2-1.9-.7-4-.6-1.6.3-3.6 1.3c-2.2.9-5.4 2-8.1 3.8a44 44 0 0 0-9.8 9.6 29 29 0 0 0-4 8.9 10 10 0 0 0-.3 4.2l.6.8q1 .8 2.2 1.3 1.7.7 4.5 1c3.4.6 11.1.4 14 .7 1.5.1 2.1.4 3.1.4z"/></g><g id="03-case"><g fill="none" stroke="#a87645" stroke-linecap="round" stroke-linejoin="round"><path stroke-width="2.1" d="M292.3 597.7s0 3.8.5 7.4c1.8 11.3 17.1 68.1 17.1 68.1m1.6 5.4 13.8 53.7m139.3 35.5s-.6-11-1.6-20.4c-2.3-21.5-9.6-95.6-14-105.7-.8-1.9-1.4-2.2-2.5-3-1-.8-1.8-1-3.7-1.6-5.4-1.5-27.3-5-32.8-4q-2.8.5-3.8 2c-.8 1.3-.5 2.5-.6 5.4-.2 14.6 9.7 128.4 9.7 128.4m-49.3-.2s-3.7-10.7-4-15c-.1-3 1.1-5.1 1.2-8 .2-3.6-.2-5.9-.9-11.6-2-17.6-14.9-92.2-16-106.5-.2-3.6-.7-5.2 0-6.9a4 4 0 0 1 3.4-2.6c5-1 25.7 6.3 30.7 8.5a9 9 0 0 1 5.5 5.6c4.8 12.3 27.1 136.7 27.1 136.7m107-23.2s-.4-23-1-37c-1-18.2-1.3-56-4.5-62.8-.8-1.6-1.6-2-2.6-2.5-1.2-.6-2.1-.6-4-.8a275 275 0 0 0-28-1.6c-3.7.1-6.5-.1-8.5 1q-2 1.5-2.8 4c-.7 2-.5 3.4-.6 7.2a2372 2372 0 0 0 2 91c.5 9.3 1.6 20.7 1.6 20.7m161.7-130.1s-19 1-24.6 2.6c-3.2.8-5.5 1.6-7 3.3s-1.6 3.6-2.3 6.4a204 204 0 0 0-4.2 40.3m-234 61.7s-2-4.2-3.6-9.1c-5.8-17.8-27.7-113.5-33.6-127a13 13 0 0 0-6.2-7c-4.2-2.3-23.6-9.2-23.6-9.2M336.3 765s-2.9-5.4-4.3-9c-2-5.4-6.2-20.3-6.2-20.3M530 741s-.8-6.3-.9-12c-.1-14.2 2.6-63.8 4-75.5.5-3.5.6-5.1 1.4-6.9a6 6 0 0 1 2.4-3c1.3-.8 2.7-1 5.2-1.4 6-1 25.5-1.8 31-1.6 2.1 0 3 0 4.2.5q1.6.5 2.7 2.3c1 1.8.8 4.6 1 8.3a417 417 0 0 1-2.6 56.6"/></g><path fill="#a87645" fill-rule="evenodd" d="M553.7 832.2c-16.2.4-47.9 0-64.8-.7-11-.4-16.7-.5-27.2-1.8-14.6-1.8-39-6.2-52.2-9.2-8.1-1.8-13-3.4-19.6-5.5a205 205 0 0 1-20.7-7.8c-6.3-3-13.4-6.7-17.8-9.9-3-2.1-5-4.1-7.1-6.4a39 39 0 0 1-5.8-7.5q-3.4-6.1-6.1-15.2c-2.6-8.4-4.6-20.4-7-30.5 3 9.5 6.3 26.7 8.9 28.7.6.5 1.2 0 1.8 0q1.1-.3 1.9-1 .6-.9.4-2.1c-.3-.9-1.8-1.3-2.6-2.5-1.4-2.1-2.3-5-3.8-9.7-4.3-13.1-13-49.7-19.4-74.5-.7.4-1.8.2-2.2 1.2-2 4.9 9.3 36.8 14 55.2l-26-100.3c3.4 13.7 7.6 37.6 10.3 41.1.5.8 1 .6 1.5 1 .6-.5 1.3-.4 1.6-1.3 2-5.7-12.3-49.4-18.5-74 3.7 1 7 1.5 11 3 5 1.8 11 5 16.5 7.5 3.4 11.1 6.1 18.6 10.3 33.4 8.1 28.5 25 120.9 33.1 126 1.4 1 2.7-.4 4-.6-6.8-49.2-18.6-136.1-20.5-147.7-.2-1.6 0-2.5-.4-2.7s-1.3.8-2 1.2c-.4 0-1.2-.4-1.5-.1s0 1 0 2.5c1 9.8 14.5 91 16.8 110.7.8 7.1.8 9.7 1.3 14.6-10.9-41-25.4-100.5-32.5-123-2.8-8.6-4.5-11.7-6.7-17.5-9.6-4.2-25-12-29-12.6-.8-.1-1 .2-1.7.2q-.6 1-1 2.5-.3 2 .5 5.7c.9 5.4 3.6 16.7 5.3 25-2.7-11.1-8.6-28.5-8-33.2.2-1.4.9-1.7 1.3-2.6 1 0 1.6-.3 3-.1 3.5.6 13.7 5.2 18.7 7.3q4.9 2 8.3 3.7 2.5 1.6 4.4 3.4c1.7 4 3.2 6 5.2 11.6 5 14.4 13.9 52 20.8 78 .5-.8 1-1 1.3-2.3 1.3-6.6-8.5-51.3-9.6-63.9-.4-5.1-.8-8.2-.2-11 .4-1.8 1.4-3 2-4.4 1-.3 1.6-.9 3.1-.9 4.5 0 19.3 4.4 26.5 7 5.2 1.7 8.8 3.8 13.2 5.7q1.5 2.3 2.7 4.7c.9 2 1.1 3.5 2 7 2.4 10.4 8.1 40.8 12.2 61.2.5-.2 1.4-.3 1.6-.7.4-.5 0-1 0-2.4-.4-6.2-3.8-43.2-3.9-53.7 0-4.3 0-6.9.5-9 .3-1.4.9-2 1.3-3 1-.5 1.4-1 3-1.3 4.2-.6 19 1.6 25.8 2.5q6.5.7 11.1 1.9c2.5.7 4.4 1.8 6.6 2.7q1.6 2.1 3 4.5c.8 2 .9 3.5 1.6 7.2 2 10.9 6 60 8.8 66.1.6 1.2 1.1 1.2 1.7 1.8-.4-20-2-46.1-1.3-59.7.4-7.2 1.5-10.9 2.2-16.2 3.4-.9 6.5-2 10.1-2.4q6.1-.6 13.4-.1c5.8.2 14.3.3 19.2 1.5 3.4 1 5.4 2.5 8.1 3.7.6 1 1.4 1.6 1.9 2.9.8 2.1.8 4.8 1.2 9.3 1.2 11.6 1 60.2 4 62.3.6.3 1.2-.4 1.8-.6 1-20.3 1.5-48.8 3.3-60.7.7-5.1 1.3-8 2.5-10.7.9-2 2.1-3 3.2-4.4 2.9-.8 5-1.8 8.6-2.4 5.9-1 17-1.4 23.3-1.5 4.5 0 8.8-.1 11.3.5 1.4.3 2 1 3 1.4 1 1.5 2.3 2.4 3.1 4.4 1.2 3.1 1.5 6.8 1.8 13 .9 15.2-1.6 52.5-2.4 78.7.6 0 1.2.5 1.8 0 3.8-3.5 6.7-68.1 9.1-81.7.8-4.5 1.2-6.3 2.2-9q1.3-3.3 3-6.3c2.3-1 4.2-2.3 6.6-3.1a157 157 0 0 1 35.4-4.8c2.2.2 3.1 1 4.7 1.5q.7 1.3 1.3 3c.4 2 0 3.8-.1 7.6-.6 12.9-4.3 55.7-6.5 83.5.6-.1 1.2.3 1.8-.4 4.2-4.3 12.3-72.4 16.4-87 1.4-5.1 2.5-6.7 3.8-10.1 2.6-1.4 4.5-2.7 8-4 5.6-2.3 17.2-5.2 23.1-6.8 3.6-.9 6.6-2.1 8.8-2 1.2.1 1.9.8 2.9 1.2.4 1 1 1.7 1.2 3 .4 2.3 0 4.7-.5 9.3-1.4 14-15 79.3-12.4 84.7.4.8 1 .6 1.6.9l28.6-106.1c1.5-1 2.2-2 4.5-3.1 5.6-3 21-8.4 31.6-12.5-13.2 52.6-33.8 131.3-39.8 158-2 9-2 12.8-3.7 18a62 62 0 0 1-12 22.8 51 51 0 0 1-18.2 13 272 272 0 0 1-70.5 21.4 518 518 0 0 1-38.8 5.3c-8.7.9-13.6 1.2-23.3 1.4m-193.5-65.9.1-1.5c-.2-2.2-1.8-9.4-3-13.8-1.3-4-2.6-5.5-4.5-11.4-6.2-19.3-28-112.3-32.9-124.2a10 10 0 0 0-4.4-5.4c-3-1.8-11.5-4.5-17.3-6.8q-.4.7-.5 1.5c-.1 1 .2 1.7.6 4 2.7 12.7 25.4 102.3 31.9 125.8 2.5 9.3 3.9 14.4 5.7 19.2 1.2 3 2.3 4.7 3.4 7l19.5 6zm52.2 5.2c.4 0 .9-.8 1.3-1.1 1.2-.4 3-.2 3.6-1 .6-1 .1-2 .1-4.4-.3-13.5-6.7-86.9-10.1-130.3 11.3 1.3 27 2.6 34 4 3.1.6 4.5 1.3 6.7 1.9 5 39.6 14 102 15 118.8.3 4.4-1 6.7-.1 8.5.5 1.1 1.9 1.4 2.8 2.1.4-.4.9-.5 1-1.4 1-3.2-1.2-14-2.4-24.7a5304 5304 0 0 0-10.2-80.9c-1-8.2-1.4-13.6-2.6-18.2-.8-3-2-4.9-2.9-7.3l-2.8-1.5c-1.6-.6-3.3-.7-6.1-1.1a276 276 0 0 0-30.5-3.6c-1.6 0-2.2.5-3.3.7q.4.6.4 1.1c-.2.4-1.3.3-1.7 1-1 1.4-.4 4.4-.2 9.2.5 17.7 6.4 82.7 9.6 124.1-8.4-43.5-21.3-113.8-25-130.4-1-4-1.2-5.6-2-7.4-.6-1.2-1.3-1.8-2-2.7-1.4-.7-2-1.4-4.1-2.2-5.2-2.2-24-7-28.7-8.3-1.5-.4-2.2-.7-3-.7q-1 .2-1.9.7c.3 1 0 1.8 1 2.7 3.4 3.3 23.4 7 35 10.4.6 1.2 1 1.5 1.7 3.8 4 13 17.4 91.3 26.2 137 .4.4.8 1.2 1.2 1.2m-3.7-.7-25-126.8c-1-4.9-1.3-7.2-2-9.3-.4-1.3-.8-1.9-1.2-2.8-1.6-.7-2.5-1.2-4.7-2a209 209 0 0 0-22.8-6.2l-1.4.1q-.3.6-.4 1.4c-.2 1.1 0 2.3.2 5 1.2 12.6 13.7 85.5 15.6 104 .7 6.8.2 10.2.7 13.9.4 2.6 1.4 4.3 1.6 6.4.1 2.1-.9 4.3-.7 6.3a14 14 0 0 0 1.4 4.7q.8 1.3 1.8 2.3.3.5 1 1c1.4.6 5.8.6 9.8 1 6.4.5 16.5 1 24.8 1.5zM594.5 690l1.4-1.5q.4-.6.6-1.6c.3-1.3-.2-3 0-5.7a356 356 0 0 1 3.4-27.3c.7-4.8 1.3-9.6 2-11.8.3-1 .6-1.2.9-1.9q.7-.5 1.9-.8 2.1-.7 6.2-1c4.8-.7 13.5-1.5 20.2-2.2h1l-.3.4c0 .1.7.6 1 .6q.4 0 .8-.5l.9-1.3.3-1-.3-.5.5-.5q0-.7-.4-1.3-.3-.2-1.2 0a278 278 0 0 0-29.4 4.6q-2.3.4-3.2 1l-.5.8q-.8 1.3-1.3 3c-.5 1.6-.7 3-1.2 5.5-.9 5-2.7 15.8-3.5 23.2-.7 6.7-.7 12.9-1 19.3zm-172.8 81c7.2-1 15-1.7 21.6-2.8 5.6-1 10.4-2 15.6-3.1.3-.4.7-.5.9-1.2.7-2.3-.7-9-1.5-17.1a2336 2336 0 0 0-13.5-102.5c-.3-1.2-.6-1.4-.8-2-.7-.2-1-.5-2.1-.7-4-.9-22.5-3-27-3.4q-2.3-.3-3.2-.1l-1 .7c-.1.8-.4 1-.5 2.2-.8 9.9 7.5 113.3 9.5 125.6.4 2.2.7 2.6 1 3.8zm107.2-28q.5-.3 1-.9c.5-.3 1.4-.5 1.7-1q.4-.5.3-1.2c0-.7-.9-1.3-1.1-2.2s-.3-1.7-.3-3.8c-.2-9.3 3.4-62.4 4.4-76.5q.4-8.3 1-11.3l.6-1.6q.6-.4 1.5-.7 1.6-.4 5-.5c6.5-.4 24-.7 35.9-1 0 14.2.4 32.5.3 42.8a188 188 0 0 1-1 16.7c-.4 1.6-2.2 4.1-2 5.5.2 1 1.4 1.6 2.2 2.4l1 .5q.6.2 1.2-.2c1.5-1.7 1.4-14.4 1.7-21 .3-6 0-11.1 0-17.2.2-6.6 1.2-16.1 1-21 0-2.8-.2-4.5-.6-6.3q-.5-2.2-1.2-4.2c-1-.5-1.6-1.2-3-1.6-2.2-.6-5.5-.2-9.7 0-7.6.3-27 1.6-32 3-1.7.4-2 1-3.1 1.4q-.8.8-1.4 1.8-1 2.6-1 7.3c-.4 4.7 0 10.9-.2 18.2-.4 11.3-2.3 30-2.9 42.8-.5 10.6-.3 19.4-.5 29 .4.3.9.8 1.2.7m-58 24.5c.9-1 2.2-1.8 2.5-3.1.5-2-1-4.7-1.4-7.6-.4-4-.4-7.4-.6-13.9-.5-14.6-1-53.3-1-71.6 0-11.4.2-18.6.3-27.8l1.6-.7h3.3l23.4.5c4.5.1 9 0 11.6.6 1.2.2 1.8.5 2.7.9.4 4 .8 6.3 1.3 12 1.1 14 3.4 59.5 4 72.8.2 5 .5 7.4.3 10.3-.1 2-1.2 4.2-.8 5.4.4.7 1.4.9 2 1.3.4.3.8 1 1.2.9q.5 0 1-1.2c.7-2.4-.2-9.6-.5-17.5-.6-16.1-2.8-60-4-74-.6-5.4-1-7.6-1.5-11.4q-.3-.7-1-1.1c-.7-.5-1.8-.4-3.5-.6-4.1-.5-14.8-1.6-21.6-2-6.2-.4-13.9-1.1-17.5-.6-1.8.3-2.5.9-3.7 1.3 0 .5.4 1 .2 1.5s-1.5.6-2 1.2q-.5.6-.7 2c-.4 2-.3 5.1-.4 10.5 0 17.4 2.4 74 3.6 111zM601.5 676l8.3-11.5c3-4 7-8.4 9.8-12.2 2.4-3.3 5-7 6.1-9.2q.7-1.4 1-2.4-.6-.4-1.2-.5h-1l-.6.3c-1.6.5-10.8.8-13.4 1.3q-1.3.1-2.2.5l-2.7 1.5-.7.7q-.5 1.3-1.1 4.4c-1 4.2-2.5 14.8-3 19.7-.4 3-.4 4.8-.6 7.1zm-66.2 57.6 1-.4a412 412 0 0 0 34.8-26.2l3.2-3.4c.5-5.8 1.3-11.7 1.5-17.4.3-5.7-.1-13 0-17 .2-2.2.5-3 .5-5.1.2-3.4.2-10.2 0-13.4-.2-2-.1-3.6-.6-4.5q-.4-.6-.9-1c-10.5.6-27 1-31.7 1.6-1.4.1-1.9.2-2.6.4l-1.8 1c-.3 2.1-.6 3-1 6.2-1.2 10.9-4.2 62.8-4 73.2 0 2.9.3 3.7.5 5.5zM477.4 760q4.8-1.5 10-3.4a213 213 0 0 0 27-12.5l.8-.9c-.3-11.8-.3-22.3-1-35.6-.7-17-2.9-52-4-57.7-.1-1-.3-1.2-.5-1.8-.3-.3-.3-.7-1-1a165 165 0 0 0-26.8-1.5c-3.3 0-6.2 0-7.5.5q-.7.4-1 .9-.5 2.3-.7 4.7c-.2 2.4 0 4.9 0 8.5 0 6.6.8 19.7 1 27.8 0 6.4-.2 13.1 0 17 0 2 .3 2.5.4 4.5.2 4-.1 13.9 0 17.9.2 2 .4 2.6.5 4.5.2 3.2-.1 8.6.1 13.1l1.4 15z"/></g><g id="04-case-shade"><g fill="none" stroke="#8d5b30" stroke-linecap="round" stroke-linejoin="round"><path stroke-width="2.1" d="m604.2 826.7 34-6m-314-88.9-13.5-52m334 139.2 26.1-8.6m34.7-20s-11.5 8.7-16.8 11.9c-4.5 2.6-13 6.3-13 6.3m-171.4 23.2s-23.4-.8-36-2.1a371 371 0 0 1-80.5-16.2 123 123 0 0 1-36.9-18.2c-4.5-3.5-8-5.5-11.4-11-5.9-9.6-13.6-45.1-13.6-45.1m-29.1-112.5-7.3-33m19.7 81.1-10.8-41.1"/></g><path fill="#8d5b30" fill-rule="evenodd" d="M525 787.7c-.7-4.7-1.4-7.1-2-14.1-1.8-20-3-95.3-5.2-115.9-.8-7.6-1.7-10.3-2.6-15.5-11-.9-25.3-2.5-33.1-2.8-4.3-.2-7.3-.4-9.9 0-1.6.3-2.6.8-3.9 1.2q-1 2.8-1.7 5.8c-.5 2.4-.3 3.6-.4 7.9-.1 17.2 2 87.9 3 131.9-5.4-44.3-13.2-113-16.3-132.8-1-5.8-1.1-8.1-2.2-11.1-.7-2.2-1.8-3.6-2.7-5.4l-42.2-5.7c-.5.6-1.2.8-1.5 1.7-.8 2.1 0 6 .3 12 .8 18.6 5.6 76.4 8.4 114.7-8.3-42.1-20.7-112-25-126.4-.9-3-1.4-3.6-2.1-5.4-1.7-1-2.7-2-5.1-3a205 205 0 0 0-25-7.2c-3.9-1-7.5-2-9.4-1.7-1 .1-1.3.8-2 1.1.1 4-.1 6 .4 11.8 1.6 17.2 13.3 82.5 15.5 101.6.8 7.4.8 10.4 1.1 15.6-10.8-41.3-25.5-102.3-32.6-123.9-2.6-7.8-4.2-10.5-6.3-15.7l-34-14c-3-11.1-8-26.6-9.2-33.4-.6-3-.5-4.4-.7-6.5 12.6 4.4 25.8 9.3 38 13.2a818 818 0 0 0 91 21.8c20.6 3.4 42.2 6 63 7.6a751 751 0 0 0 59.3 1.7 598 598 0 0 0 47.3-1.6 931 931 0 0 0 63-7.6 462 462 0 0 0 31.5-6 798 798 0 0 0 68.4-18.5c10.4-3.3 20.4-7.2 30.6-10.8q.6.5.8 1c0 .5-.8.5-1.2 1.4-2.3 4.1-7.2 26.1-10.7 39.2-10.1 4.3-25.4 10.2-30.3 13-1.7 1-2.2 1.7-3.3 2.5-11.6 44-27.6 107-34.9 131.9-2.9 9.9-4.3 13.8-6.5 20.7l19.6-144.4c-.8 0-1.2-.4-2.5-.3-4 .2-18.2 4.6-25 7-5 1.7-8.2 3.4-12.2 5.2-.7 1.1-1.3 1.3-2 3.4-4.9 12.9-18.9 97.3-28.3 145.9-.2-1.4-.5-1.8-.5-4.2-.3-13.2 9.2-112.3 10.5-131.1.3-5.2 1.2-8.2.5-10-.3-.7-1-.8-1.4-1.3-9 .8-19.2 1-27 2.3-6.2 1.1-10.9 3-16.3 4.5-1.8 10-3.9 19.3-5.4 30.1-1.6 12.4-2 25-3.9 40.4-2.4 21-6.6 49.5-9.9 74.3-.1-19.5-.7-38.2-.4-58.6.3-22.6 3.2-56.5 2.7-70.9-.2-6.3-1-9.1-1.4-13.7-1.3-.5-2.2-1.3-3.9-1.6-2.5-.5-5.6-.2-9.8 0-7.4.3-25.5 1.6-30.7 2.9-2 .5-2.6 1-3.9 1.6l-1.5 3.8c-.5 2.1-.4 3.6-.6 7.8-1 17-3.7 87.6-5.6 131.5z"/><path fill="#8d5b30" fill-rule="evenodd" d="M337.9 763.2q-1.2-1.1-2.3-2.4c-.8-1.2-1.3-2.3-2.1-4.2-1.6-4-3.7-12.3-5.4-19-2-7.7-3-13.8-5.6-24.5-5-20.2-20.2-73.7-23.3-87.8-1-4.4-.8-5.4-1.6-8.7-1-4.2-3.5-11-4.1-14.2-.3-1.6-.2-2.4-.3-3.5q5.5 1.5 11.1 3.5c4 1.4 9.5 3.6 12.5 5 1.8 1 2.8 1.8 4.1 2.6.7 1.4 1.3 2.1 2.1 4.2 1.9 4.8 4 13.8 7 25 6.4 23.4 24.1 98.3 27.7 107.4.5 1.4.8 1.6 1.2 2.4l-2-4c-.8-2-1-3.3-2-7-4.3-15.4-25.7-99.5-30.2-115.8-1.2-4.4-1.5-6-2.5-8.4q-1.3-2.4-2.7-4.4c-1.6-.9-2.6-1.7-4.6-2.6-3.6-1.8-12.7-5.4-16-6.3-1.3-.4-2-.4-3-.5 1.8 9.8 3.8 23.1 5.5 29.5.8 3.2 1.3 3.3 2.4 7 3.7 12.1 17.8 66.9 21.5 81.4 1.3 5.3 2.1 7.8 2.6 10.8.4 2.3.1 3.3.7 5.9 1.3 5.9 6 18.7 9 28zm72.5-.5c-.4-.9-1-1.3-1.4-2.5-1-2.3-1.3-5.4-2.5-11-3.8-18.2-18.6-104.7-22.3-115.8-.6-2-1-2.3-1.6-3.4-.7-.5-1-1-2.2-1.5-4.4-2-21.2-5.9-31.8-8.8q-.6.6-.9 1.3v1.5c.6 5.8 8.5 52.3 10.6 68 1.1 8.3 1.3 12.4 2.2 19.1 1.1 7.4 3.3 17.5 4.2 23.3.5 3.4.8 5.7 1 8.3l-.2 6.3c-5.7-39.4-15.1-100-17-118-.5-5.3-.4-6.8-.6-10.3 8.4 2.5 18.7 5.7 25.2 7.4l10 2.2c.7 1.7 1.2 2.3 2 5 2.8 10.4 9.5 52.6 14 75.5 3.7 19.2 7.2 35.3 10.8 53zm52.4 4h-.4c-1.3-1.3-1.6-18.4-3-31.4-2.5-21.4-9-71.6-10.9-85-.6-4-.6-6.2-1.4-8q-.7-1.3-1.5-2.3c-.8-.2-1-.5-2.4-.8-4.6-1-22.6-2.7-34-4q-.6.4-1 1.3c-.4 1-.1 2.2 0 5 .5 13 8.3 97.7 8.8 112.6v6.9c-2.7-32.8-6.4-75.3-8-98.2-1-12.3-1.2-19-1.7-28.4 11.3 1.4 27.6 3 34.1 4.2q3.9.6 5.4 1.3l.7.7.7.4q.2.6.3 2.2c1.4 9.4 14.6 108.8 15 119.8l-.1 3zm133.3-80.5.8-9a753 753 0 0 1 3.5-26.8q.8-5.6 1.6-8.3l.9-1.9 1.8-.8q2.2-.5 6.1-1l21.1-2.2-.5.4c-1 .4-4.2.3-7.1.7l-16.4 2.6q-2.6.3-3.9.8l-1 .6-1.2 5.7c-1 5-2.8 16.7-3.5 23.4-.5 5-.4 11-.7 13l-.4 1.3q-.4.6-1 1zm-64.5 53h-.5l-.6-2c-.2-.9-.1-1.3 0-2.9.1-7.2 2.4-44.9 3.4-60.3.6-9.6.9-18 1.6-23.4.4-2.8.9-4.2 1.3-6.3l6.5-1c7.2-.5 23.9-.7 35.8-1 0 14.7.3 33.6 0 44.3-.1 6 0 10.9-.6 14.3-.5 2-1.3 3.2-1.9 4.7q.4-.3.7-1c.8-2.3.9-11 1-16.4v-16.8c.2-6 1.1-13.3 1-18.4 0-3.7-.4-6.3-.7-9.5l-1.2-.8c-1.5-.5-4.7-.2-8.5 0-7.4.4-21.7 2.2-32.5 3.3l-.7 1.2q-.5 1.6-.5 5.1c-.2 4.2.2 10.6 0 17.8-.5 11.4-2.5 31.2-3 43.8-.4 9.4-.4 16.5-.6 24.8zm-57.8 24.5c-.4-.7-1-.9-1.3-2-1-3-.8-10.6-1.1-19-.6-16.1-1-52.9-1-71.2 0-11.5.3-18.8.4-28.2 2.9-.1 5.1-.4 8.6-.4 5.2-.1 13.7.3 19.4.5 4.6.1 10.1 0 12.4.5.9.2 1.2.5 1.8.7q.6 1.6 1 3.7c.4 2 .3 3.9.5 7.8.8 12 3.5 60.2 4 73.4.3 5 .6 7.4.4 10.1 0 2-.5 3.2-.8 4.7-.4-12.3-.7-23.7-1.3-37.1-.7-15.9-2.1-41.7-3-52-.4-4.3-.8-6.1-1.2-9.2-11-1-25.5-2.5-32.8-2.8-3.7-.2-7.1-.6-8.4 0l-.7 1.1-.5 1.2c-.4 1.8-.1 5.8 0 11.6.2 17.7 2.1 70.9 3.2 106.3zm-137.6 16.5.1-.5c0-1.4-3.2-8.5-4.3-11.8-.7-2.3-1.3-4.6-1.5-6l-.1-2 .6.7.6 2.8c.4 1.5 1.4 3.7 1.9 5.2l.6 2.6.2 3c.3 1.3 1.4 2.8 1.7 3.9q.2 1 .1 1.9zm379-7.6.3.1c.2-.1 0-1.1-.1-1.7q.4 0 .6.3c0 .3-.9 1.1-.8 1.3m-347.6 34.2q-2.2-.7-4.6-1.9-3.4-1.7-7.2-4.3a99 99 0 0 1-8-6c-1.3-1-2.6-3-3.1-3h-.3q0 .4.3.7c.5.6 2 1.8 3.4 2.7 1.6 1.2 4.3 2.6 5.8 3.8 1.2.8 1.5 1.4 2.7 2.2 2.4 1.6 7.2 4 10.8 6zm324.7-5.1h-.4v.3q.3 0 .5-.2c.5-.4 2-2.3 3-3l3.1-1.6 2.4-1.6 1.4-1.2q0-.3-.3-.4c-1.9 1.7-4 3.7-5.7 5q-1.9 1.3-3.6 2.2zm-289.1 17.1-6-1.3c-2.4-.6-6.8-2.8-7.6-2.5q-.2 0-.3.3l.9.5c1.8.8 8.5 2.3 12.8 3.4zm186.7 10.5-.7-.1q-.2-.2-.1-.4c.2-.3 1.6-.6 2.2-.7h1q.4.1.7.4c-1 .3-2.4.8-3.1.8m-22.1 2.7-1.8-.1-1.4-.9.7-.6c.8-.3 2.8-.4 4.2-.5s3.5-.3 4.3 0l.7.6q-.3.3-1 .5c-1.1.4-4.3.9-5.7 1m-14 .5c-1.6.2-4.6.4-5.6 0q-.4-.1-.7-.5l1.6-1c1-.3 2.8-.6 4-.6q2 0 3.2.6l.8.5q-1.5.6-3.3 1"/></g><g id="05-case-light"><path fill="#bc8d5a" fill-rule="evenodd" d="m362.9 770.2-3.7-.7c-4-1-15.8-4-19.6-6-1.9-.8-2.8-1.5-3.8-2.6s-1.4-2.1-2.3-4.1c-1.8-4.6-4.6-16.2-6.5-23.7-1.7-6.7-2.3-10.7-4.4-19.3-4.2-17.4-16.4-64.5-20.3-78.4-1.5-5-2.4-7-3.2-10.3-.7-3-.8-5.7-1.6-8.9-.9-3.7-3-9-3.7-12.2-.4-2-.2-3.5-.4-5.2l3.5.7c3.7 1.2 13.8 5.1 18.1 7.2 2.5 1.2 3.9 2.1 5.8 3.2.8 1.7 1.6 2.7 2.4 5 2 5.1 4 13.7 7 24.7 6 22.3 20.2 80 26 101.4 2.7 9.9 5.1 17 6.3 21.7.6 2.1 1 3.4 1 4.7v2.4zm48.3 4.1c-7.7-.4-16.1-.7-23-1.2-5.9-.5-13.6-.7-16-1.5q-1-.4-1.4-.9c-.6-1-1.3-1.7-1.8-3-.9-2.3-1-4.6-1.9-9.6a4742 4742 0 0 1-18.6-128.3c-.5-5.4-.4-7-.7-10.5 1.4.3 2.4.3 4.3.8 4.3 1.1 14.5 4.8 20.2 6.3 4.2 1.2 7.4 1.8 11 2.6.6 1.7 1.1 2.4 1.8 5.1 2.8 10.3 9.5 52 14 75.3 3.9 19.9 9.8 44.9 11.3 55.5.6 4.2.5 5.9.8 8.8zm10.2-.3-2.8.2c-1.7-17.5-4.2-40.1-5.1-52.5-.5-6.9-.3-9.2-.7-16-.8-11.9-3.5-37.5-4.4-49.7q-.9-10.7-1-16.7l.2-5c5 .8 9.6 1.7 15 2.4 6 .8 15.4 1.3 19.3 2l3.6.8 2.3 1.2.8 3c2 11 14 108.9 15 119.3 0 1.5.2 2.1 0 2.7q0 .3-.4.5-.4.5-1.3.9a74 74 0 0 1-10 2.4c-7.4 1.5-25.9 4.1-30.5 4.6m174.7-87.9c.3-3.2.4-5.7.9-9.6.7-6.6 2.4-20 3.4-26.4q.8-5.5 1.6-8.2l.9-1.8 1.8-.8q2.1-.5 6-1l21.4-2.2h-.4c-.6.5-1.3 3.9-2.5 6.2-1.7 3.3-4.7 7.7-7.5 11.6-3 4-6.6 8-9.8 12.2-3.3 4.3-6.6 9.7-9.5 13.2-2.2 2.6-4.2 4.2-6.2 6.3zm-64.3 53h-1q-.5-.8-.4-4c-.2-7.7 2-37.7 3-53l2-31.4.5-4.3q.3-1.2.8-2c1.8-.4 2.9-.8 5.6-1 7-.8 24.6-.9 36.9-1.2v44.5c-.2 5.8-.2 10.6-.6 13.5-.2 1.4-.4 2-1 3.1a23 23 0 0 1-3.7 4.6 101 101 0 0 1-8.8 7.7c-4.4 3.5-10.1 7.6-15.5 11.4q-8.5 6-17.2 11.6-.3.4-.6.4m-57.4 24.5q-.8-.1-1.1-.4c-.3-.5-.6-.6-.8-1.3-.8-2.5-.9-10-1.1-17.9-.5-15-.1-55.2-.5-65.7-.2-3.3-.4-3.6-.5-6.6-.3-6-.5-23.6 0-27l.4-1.4 1.4-.4c1.8-.2 5.5 0 9.5 0 7.2 0 25.9.3 29.6 1 .8.1 1 .3 1.5.5q.5.5.8 1.1.4 1 .4 2.7l.6 8.4c.8 12.4 3.4 60.2 4 73 .3 4.7.6 6.9.4 9.5q-.2 2.8-.7 5c-1.2 1-2 1.8-3.5 2.9a233 233 0 0 1-30.2 13.6c-3.8 1.3-8.6 3-10.2 3m-143-2.1h.3l-.8-1.6-.3-.3-.2.3.6.9v1z"/></g><g id="06-chips"><g fill="none" stroke="#4e261f" stroke-linecap="round" stroke-linejoin="round"><path stroke-width="2.1" d="M777 353.3s-.3-3-.8-4.3-2.7-3.5-2.7-3.5M367.4 806.7s-6.8-3.2-10.3-5.5c-4-2.4-12-8.8-12-8.8"/><path stroke-width="5.3" d="M689.6 258.5s-5.1-5.3-7.4-7.2a20 20 0 0 0-4.8-3.2q-2.4-1.4-5.3-2c-2-.3-6.4-.1-6.4-.1"/><path stroke-width="2.1" d="m335.9 779.3-5.3-19.1"/></g><path fill="#4e261f" fill-rule="evenodd" d="M386.3 265.5h-2.8l-1-2.6q-.7-2.3-.6-5.7a57 57 0 0 1 10.3-26.6 27 27 0 0 1 8.7-7.5 43 43 0 0 1 9.4-3.9 31 31 0 0 1 10.7-.8 55 55 0 0 1 11.8 2.6q2.4.9 5 2.2c2.2 1.2 5.2 3.6 7 4.5q1.4.7 2.6 1l.7-1.5 1.4-1.2q.3.2.5.6c.1.6-.3 1.6 0 2.5.3 1.5 3 4.8 3.1 5.5l-.1.3c-2.2 1.5-3.7 2.7-6.6 4.3a277 277 0 0 1-20.2 9.9 756 756 0 0 1-32.4 13.9q-4.8 2-7.5 2.5m307.9-3.3c-1.9-1-3.3-2-5.7-3.2-3.9-2.1-11.2-5.5-15.7-7.9-3.5-1.9-7.7-4.9-9.1-5.3q-.6-.2-.8-.1.1.3.5.6c.7.5 2.6.9 4.5 1.7 3.2 1.4 9.4 4.6 12.6 6.3 2 1.1 3.6 2.5 5 3h2.2l1.7 2c1 1 3 2.2 4.5 3.2zm-187.4 55c-2.4-.1-4.5.1-7-.2q-4.3-.7-9.7-2.5a220 220 0 0 1-15.8-5.5q-4.8-2-8.2-3.8-2.4-1.2-3.7-2.5-.9-1-1.2-1.7l-.3-1.4c0-.8.1-2.2.6-3.4q1.1-2.4 3.5-5c1.8-2.2 4.8-5.3 7-7a20 20 0 0 1 4.4-2.4q3-1.2 6.5-2.2c2.7-.7 6.5-1.8 8.9-2.2a20 20 0 0 1 6.7.1q1.5.3 2.8 1 1.2.5 2.5 1.4c1 1 2.4 2.8 3.3 4.2q.9 1.6 1.5 3.4.8 2.3 1.4 5a60 60 0 0 1 1.1 16q-.1 2-.6 3.7-.4 1.4-1 2.6l-2.2 2q-.2 0-.5.4m177 22.3c-1.7.3-4.9.3-7.5 0a62 62 0 0 1-14.7-3.6 50 50 0 0 1-13-7.6 80 80 0 0 1-12.9-14l-3.2-5.5-1.4-2.8q-.5-1.5-.7-3 0-1.6.2-3.1l.8-2 1.6-1.7q1.4-1.2 3.3-2.4 2.3-1.5 5.6-3a130 130 0 0 1 12-3.7q4.6-1.1 8.9-1.6c4.3-.5 6.3-1.1 9-1.1q3.1 0 5.5.7a8 8 0 0 1 2.5 1.5q2.1 1.6 4.1 4.1a36 36 0 0 1 4 6.9 49 49 0 0 1 4.2 16.1 58 58 0 0 1-1.5 18.2q-.4 1.7-1 2.8t-1.4 2q-1 1-2.4 2-.7.5-2 .8m-416.5 23.2h-.4l2.4-2-.2-1.2-.6-.6-.1-2.1c-.1-3-.2-12.2 0-16.2.1-2.3.2-3.3.6-5.6.6-3.3 2-9 3-12.2q.9-3 1.9-5 .7-1.9 1.9-3.4 1.6-1.8 4.3-3.2 2.5-1.3 6.5-2.2c4.8-1.2 15.7-2.8 19.8-3.1 1.9-.1 2.8 0 4 .1q2.1.3 3.8.9.9.3 1.6.8l2.4-2.3c-.3.8-.4 1.2-1.1 2.3a528 528 0 0 1-22 31.5 68 68 0 0 1-13.6 13.1c-3.7 2.8-9.2 6.6-13.8 9.9zm542 56.5h-.6l-2-1.1q-1.9-1.5-5.4-5.6a832 832 0 0 1-31-43.1q-4.5-6.7-6.5-10.5-1-2-1.4-3.7v-3q1.2-1 2.5-1.8c1.5-.8 4.4-1 5.5-1.8q1-.8 1.4-1.7v-1.2c-.2-.7-1.1-1.8-1.7-2.7l4.6 4.8q.3.4.3 1c0 .3-1.2.7-1.3 1q.2.7.8 1.3.9.4 1.8.4c1 0 2-1 2.9-1.6 4.4.5 9.4.7 13.3 1.6a49 49 0 0 1 12 4.8q2.3 1.4 4.6 3.5c2 2 4.2 4.8 5.7 7.3q2 3 3.1 6.5a50 50 0 0 1 1.1 22.8 64 64 0 0 1-2.4 9.6c-.3.8-.6 1-1 1.5l2.3 3c-.9.3-2.2.3-2.7.7l-.5.8q-1.3 2.3-2.7 4.2-1 1.4-2.3 2.5zm-387 .8c-4.4.3-11 .4-15.3 0a52 52 0 0 1-18-4.3l-2.6-2c-.3-1.5-.8-2.6-1-4.6a106 106 0 0 1 1.7-27.6q1.3-5.4 3.3-10.4c1.4-3.6 3.2-7.7 5-10.7a31 31 0 0 1 4.5-6 10 10 0 0 1 5-2.6q1.6-.2 4.8.3c5 .8 17.6 4.2 23.9 6.2q6.3 1.9 10.3 3.8a64 64 0 0 1 15.7 12.2c2.3 2.4 5.8 6 7.5 8.7a22 22 0 0 1 2.8 5q.3.8.1 1.5 0 1-.5 2.3c-.6 1.3-2 3.3-3.2 4.8q-2.2 2.4-5.3 4.7c-3 2.2-7.1 5-10.7 7.4-3.4 2.2-7.5 5-10 6.5a25 25 0 0 1-8.6 3.3q-4 1-9.4 1.5m267 40a96 96 0 0 1-19.7-.4c-6.6-.7-21.9-2.5-28-3.7a46 46 0 0 1-13.6-4.5 51 51 0 0 1-8.5-5.6 19 19 0 0 1-4-4.5q-.5-1.1-.6-2.2l.2-3.4q.4-1.8 1.3-4a124 124 0 0 1 11.5-20.9c1-1.1 1.4-1.6 2.4-2.4q1.7-1.5 4.2-3a76 76 0 0 1 20.9-9.1c3.6-1.1 8-2.7 10.6-2.7 1.6 0 2.4.4 3.8.9q3.1 1.2 6.8 3.4a119 119 0 0 1 23.4 18.3c1 1.3 1.5 2 2 3.5a60 60 0 0 1 1.5 18.3 78 78 0 0 1-2.6 14.5l-1.3 3a8 8 0 0 1-3.7 3c-1.5.6-4 1.2-6.6 1.5m-370-10.8-2-.1q-1.6-.4-3.6-1.4a56 56 0 0 1-15.9-11 41 41 0 0 1-7.6-9q-1.3-2-1.8-4-.1-1.9.5-3.6a21 21 0 0 1 3-5.3 38 38 0 0 1 11.7-10.4 32 32 0 0 1 8.9-4l3.7-.9c2.2-.4 6-1.1 8.3-1q2.6.1 4.4 1 1.6.9 2.6 2.4 1 1.7 1 4.2.4 2.9.1 6.5a120 120 0 0 1-2.4 14.6 68 68 0 0 1-7.6 19q-1.3 1.4-2.8 2.5zm195 49.8c-5.8.4-19 .3-24.5.1a66 66 0 0 1-10.1-1.1l-2.8-1q-.7-.2-1.3-.6-.7-.6-1.3-1.6-.3-.2-.4-.5c-.3-.7-.2-3 0-4.6q.6-2.8 1.7-5.7 1.3-3 3.3-6a45 45 0 0 1 10.2-10.7 41 41 0 0 1 10.7-5.6c2.1-.6 4.9-.9 7.3-1.4q2 1 3.8 2.3 1.7 1.4 3.3 3.3a68 68 0 0 1 8.4 13 41 41 0 0 1 3.4 10.7c0 1.5-.2 3.3-.4 4.4l-.7 2-1 1q-.6.5-1.9.9-2.6.7-7.7 1"/></g><g id="07-chip-shadows"><g fill="none" stroke="#33578b" stroke-linecap="round" stroke-linejoin="round"><path stroke-width="2.1" d="M381.8 257.5s1 4.3 2.4 5.4c1.3 1 2.7 1 5.1.8 7.3-.8 30.8-12 41.7-17.2 7.4-3.6 15.6-7 18.3-9.9 1.1-1.2 1.3-2 1.5-3.4.4-1.8-.4-7-.4-7m62.2 6.8s32.1 1.4 41.5-.9a43 43 0 0 0 11.6-5.7m-245.2 76.3s-20.1 29.6-27.2 37.8c-4 4.5-6 6.2-10 9.6-5 4.4-18.6 14.4-18.6 14.4M220.5 438s3-10.1 5-15.3a195 195 0 0 1 7.3-16 183 183 0 0 1 8.4-15.5 206 206 0 0 1 8.8-12m472.2-97.6s12.3 11.5 19 19.8A751 751 0 0 1 772 346M218.8 446s-3 19.3-2.6 28.3c.3 8.4 2.5 17.8 4.4 24.1a51 51 0 0 0 9.8 18.4 112 112 0 0 0 38.3 31.2c8 4.2 16.1 7.3 26.6 11a736 736 0 0 0 96.4 26 839 839 0 0 0 50.3 7.8 373 373 0 0 0 31.6 3c19.8 1 55 1.5 75.6 1.2 14-.2 22.7-.6 35.5-1.8a829 829 0 0 0 87.8-13.4 892 892 0 0 0 60.9-15.9 642 642 0 0 0 34.7-12.5M663.9 246.1l31.8 17.1m75.6 289.1s18.5-9.6 25.3-14.3a101 101 0 0 0 20.8-19.3 74 74 0 0 0 14.1-34 70 70 0 0 0 1-13.3c-.3-7.6-1.5-18.6-3.6-27.9-2.2-9.6-6.5-24.3-9.6-28.7q-1.7-2.6-3.5-2.8c-1.5 0-3.6 3-5.2 3.6-1.3.4-2.4.8-3.7.3-2.5-.9-5.2-4.5-8.9-9-7.7-9.2-29.4-38-32.5-46.9-1-3-1.3-5-.4-6.9s6-4.1 6-4.1m-278.9-71q3.6-.2 6.4.4 2.2.4 4.2 2a19 19 0 0 1 5.4 7.6 60 60 0 0 1 2.1 19.6 12 12 0 0 1-1.6 6q-1.3 1.8-3.5 2.5c-2.2.7-5.8.2-9.4-.4-4.8-1-11.7-3.5-16.7-5.4-4.3-1.6-8.8-3-11.7-5-2.2-1.6-4.5-3.4-5-5.5-.5-2 .6-4.7 1.9-6.9a31 31 0 0 1 16.9-12.3 46 46 0 0 1 11-2.6m178.8 7c2.6 0 4.4.3 6.3 1.1q2.8 1.4 5.2 3.8 2.5 2.8 4.4 6.7a50 50 0 0 1 3.8 32 18 18 0 0 1-3.4 7.1 9 9 0 0 1-5.2 3 56 56 0 0 1-30.4-8.8c-5-3.4-9.6-8.4-13-13-3-4-6.6-8.8-7-12.5q-.5-3.9 1.7-7a21 21 0 0 1 7.8-5.5 76 76 0 0 1 29.9-7m-266.3 67.9c2.3-.6 4.8-.1 7.9.3 4.4.7 10.2 2.2 15.7 4 6.5 2.1 15.4 5.3 20.7 8.5 3.8 2.3 6.1 4.7 9 7.6 3 3 6.7 7.2 8.5 10.3q1.8 3 2 5.7 0 2.8-2 5.7c-2.7 3.7-10.5 8.8-15.4 12.3-4.2 3.1-8.6 6-12.3 8a33 33 0 0 1-7.4 3c-3.4.9-7.5 1.3-11.4 1.5a91 91 0 0 1-24.8-2.5q-3.4-.9-5.7-2.5-2.3-2-3.5-4.9c-.8-2-.9-3.6-1-6.5 0-5.3 1-15.8 2.8-23a92 92 0 0 1 7.7-19.3c1.4-2.4 2.3-3.8 3.8-5.1q2.3-2.2 5.4-3m259.8 41.7c2.7-.2 4 .2 6.2 1q4 1.3 8.6 4.4a117 117 0 0 1 14.6 10.8c2.8 2.5 5.1 4.4 6.6 7.2a25 25 0 0 1 2.3 9.5c.4 4.4 0 10.8-.7 15.2a30 30 0 0 1-2.4 9.4 15 15 0 0 1-5 5.7c-1.7 1.1-3.8 1.2-6.2 1.5-3 .4-5.8.3-10.2 0-8.5-.4-27-2-36.5-4.1a51 51 0 0 1-15.1-5.4 31 31 0 0 1-9.7-8.7 8 8 0 0 1-1.2-4.3q.1-2.7 1.5-6a104 104 0 0 1 6.4-13c1.9-3 3.1-5.4 5.8-8 3.3-3.1 8.4-6.2 13.6-8.6a83 83 0 0 1 21.4-6.6m-341.2 4.6q3.4.4 5.6 2.1c1.1 1 1.8 2 2.2 3.8a47 47 0 0 1-.5 16.5 78 78 0 0 1-7.1 21.3 10 10 0 0 1-4.3 4q-1.9 1-4.3.3a61 61 0 0 1-20-14q-3.1-3.2-4.5-6.6-1.2-3-.5-6 .8-3.7 3.6-7.1c2-2.7 5.5-5.6 8.7-7.7a40 40 0 0 1 10-5c3.6-1 8.1-2 11.1-1.6"/><path stroke-width="2.1" d="M503.6 461.7q4-.1 7.4 2c3 2 6 6.4 8.3 10.2 2.3 4 5 9.5 5.4 13.4.4 2.7.1 5.6-1 7.4-1 1.6-3 2.5-5 3.2-2.6 1-6 .9-10 1-5.6.3-14.9.5-20.6-.4a27 27 0 0 1-10.7-2.9q-2-1.4-2.5-3.4a8 8 0 0 1 0-4.6c.6-3 3-8 5.7-11.4 2.9-3.8 7-7.6 11-10 3.8-2.3 8.5-4.4 12-4.5"/></g></g></svg>